HIERARCHY
ROOT root
{
	OFFSET 0.000000 0.000000 0.000000
	CHANNELS 6 Xposition Yposition Zposition Zrotation Yrotation Xrotation
	JOINT lhip
	{
		OFFSET 0.058581 -0.082280 -0.017664
		CHANNELS 3 Zrotation Yrotation Xrotation
		JOINT lknee
		{
			OFFSET 0.043451 -0.386469 0.008037
			CHANNELS 3 Zrotation Yrotation Xrotation
			JOINT lankle
			{
				OFFSET -0.014790 -0.426874 -0.037428
				CHANNELS 3 Zrotation Yrotation Xrotation
				JOINT ltoe
				{
					OFFSET 0.041054 -0.060286 0.122042
					CHANNELS 3 Zrotation Yrotation Xrotation
					End Site
					{
						OFFSET 0.000000 0.000000 0.000000
					}
				}
			}
		}
	}
	JOINT rhip
	{
		OFFSET -0.060310 -0.090513 -0.013543
		CHANNELS 3 Zrotation Yrotation Xrotation
		JOINT rknee
		{
			OFFSET -0.043257 -0.383688 -0.004843
			CHANNELS 3 Zrotation Yrotation Xrotation
			JOINT rankle
			{
				OFFSET 0.019056 -0.420046 -0.034562
				CHANNELS 3 Zrotation Yrotation Xrotation
				JOINT rtoe
				{
					OFFSET -0.034840 -0.062106 0.130323
					CHANNELS 3 Zrotation Yrotation Xrotation
					End Site
					{
						OFFSET 0.000000 0.000000 0.000000
					}
				}
			}
		}
	}
	JOINT lowerback
	{
		OFFSET 0.004439 0.124404 -0.038385
		CHANNELS 3 Zrotation Yrotation Xrotation
		JOINT upperback
		{
			OFFSET 0.004488 0.137956 0.026820
			CHANNELS 3 Zrotation Yrotation Xrotation
			JOINT chest
			{
				OFFSET -0.002265 0.056032 0.002855
				CHANNELS 3 Zrotation Yrotation Xrotation
				JOINT lowerneck
				{
					OFFSET -0.013390 0.211636 -0.033468
					CHANNELS 3 Zrotation Yrotation Xrotation
					JOINT upperneck
					{
						OFFSET 0.010113 0.088937 0.050410
						CHANNELS 3 Zrotation Yrotation Xrotation
						End Site
						{
							OFFSET 0.000000 0.000000 0.000000
						}
					}
				}
				JOINT lclavicle
				{
					OFFSET 0.071702 0.114000 -0.018898
					CHANNELS 3 Zrotation Yrotation Xrotation
					JOINT lshoulder
					{
						OFFSET 0.122921 0.045205 -0.019046
						CHANNELS 3 Zrotation Yrotation Xrotation
						JOINT lelbow
						{
							OFFSET 0.255332 -0.015649 -0.022946
							CHANNELS 3 Zrotation Yrotation Xrotation
							JOINT lwrist
							{
								OFFSET 0.265709 0.012698 -0.007375
								CHANNELS 3 Zrotation Yrotation Xrotation
								End Site
								{
									OFFSET 0.000000 0.000000 0.000000
								}
							}
						}
					}
				}
				JOINT rclavicle
				{
					OFFSET -0.082954 0.112472 -0.023707
					CHANNELS 3 Zrotation Yrotation Xrotation
					JOINT rshoulder
					{
						OFFSET -0.113228 0.046853 -0.008472
						CHANNELS 3 Zrotation Yrotation Xrotation
						JOINT relbow
						{
							OFFSET -0.260127 -0.014369 -0.031269
							CHANNELS 3 Zrotation Yrotation Xrotation
							JOINT rwrist
							{
								OFFSET -0.269108 0.006794 -0.006027
								CHANNELS 3 Zrotation Yrotation Xrotation
								End Site
								{
									OFFSET 0.000000 0.000000 0.000000
								}
							}
						}
					}
				}
			}
		}
	}
}
MOTION
Frames: 12
Frame Time: 0.033333
-0.082324 0.167841 0.978431 158.821441 -0.996132 106.095940 -4.563589 -3.841687 -33.080948 5.214437 9.635736 24.815622 4.873149 19.261403 -12.240457 0.000000 -0.000000 0.000000 -8.797243 2.846188 -41.054800 -4.129262 10.270756 24.220658 5.642035 -3.322548 -2.048740 0.000000 -0.000000 0.000000 4.907005 10.823248 33.699547 8.497971 -1.618439 10.360952 6.947214 -3.378488 -9.668693 -25.906517 -8.980320 -2.724318 1.956802 5.835487 -16.660004 -12.651158 -49.866145 6.942294 -17.282921 -54.196039 -11.564043 83.526510 -62.842747 -68.549063 7.654051 -7.776384 -34.459077 10.828344 40.473742 4.609412 22.855005 45.031842 -18.613398 -103.275589 45.376592 -87.985617 -22.585281 12.191323 -13.647349 
-0.079811 0.168231 0.978637 158.423263 -0.955385 106.038944 -4.469785 -3.573353 -32.883708 5.249395 9.601064 24.720362 4.788844 19.427733 -12.279265 0.000000 -0.000000 0.000000 -8.533682 3.034616 -41.034239 -4.055927 10.608534 24.252656 5.456954 -3.326780 -2.104639 0.000000 -0.000000 0.000000 4.910383 10.866895 33.937659 8.246045 -1.494805 10.246106 6.965215 -3.681340 -9.641725 -26.480672 -9.418049 -2.731464 1.871363 6.524726 -16.707199 -13.959336 -50.081793 7.736788 -16.913424 -54.285276 -11.790666 83.703964 -62.898259 -68.902722 7.958267 -7.431794 -33.842105 10.200884 40.435637 3.958179 22.063061 44.475891 -19.077779 -102.464399 45.703114 -89.032451 -20.427538 11.821553 -15.830646 
-0.077085 0.168788 0.978850 158.191579 -1.020817 106.099882 -4.483245 -3.404806 -32.698983 5.243344 9.522103 24.425417 4.634366 19.561785 -12.215263 0.000000 -0.000000 0.000000 -8.408648 3.042085 -41.112221 -3.929597 10.884664 24.333058 5.349140 -3.147889 -2.112624 0.000000 -0.000000 0.000000 4.834370 10.872684 34.100720 8.063033 -1.399144 9.942929 7.010972 -3.969560 -9.495728 -27.192295 -9.843000 -2.487921 1.892252 7.037883 -16.856701 -15.228950 -50.387747 8.576299 -16.706289 -54.362635 -11.786875 84.037856 -62.729842 -69.110979 8.855742 -7.239859 -32.915075 9.405263 40.282952 3.248161 21.417479 43.874235 -19.565558 -101.253015 46.136847 -89.059722 -17.953273 12.596050 -16.231246 
-0.073707 0.168758 0.979225 158.124366 -1.226564 106.143597 -4.514201 -3.304331 -32.523878 5.104035 9.386599 24.125012 4.448737 19.695698 -12.046237 0.000000 -0.000000 0.000000 -8.326613 3.000525 -41.127381 -3.966551 11.069258 24.435369 5.238764 -3.202479 -2.201596 0.000000 -0.000000 0.000000 4.643707 10.914861 34.324401 7.830241 -1.432004 9.691399 7.063471 -4.222931 -9.475323 -27.692901 -10.273656 -2.474440 1.926651 7.610895 -17.163333 -15.980660 -50.593082 9.158845 -16.659887 -54.585996 -11.811435 84.214324 -62.535255 -69.132233 10.143967 -6.642993 -32.147664 8.787739 40.004705 2.653080 20.693084 43.380512 -19.991318 -100.269557 46.933087 -89.080262 -16.861455 12.606682 -17.042339 
-0.069935 0.168330 0.979800 158.076999 -1.264683 106.101354 -4.351032 -3.069639 -32.297042 5.008450 9.253393 23.877834 4.338630 19.682563 -12.048376 0.000000 -0.000000 0.000000 -8.060349 3.069584 -41.115969 -3.904611 11.175619 24.509114 5.057296 -3.294719 -2.173346 0.000000 -0.000000 0.000000 4.552660 10.843887 34.606255 7.608840 -1.382845 9.509358 7.088237 -4.479221 -9.497662 -28.024358 -10.357091 -2.439092 1.640141 8.125767 -17.091986 -17.057741 -50.829624 9.806769 -16.567649 -54.520428 -11.623969 84.313494 -62.365588 -69.233602 10.848830 -6.418718 -31.209722 8.195835 39.928567 2.027550 20.107458 42.863651 -20.189192 -98.982585 47.488694 -89.140665 -15.291057 12.675377 -18.829131 
-0.066550 0.168117 0.979816 158.129656 -1.450750 106.219447 -4.285899 -3.255045 -32.375995 5.052187 9.193514 23.953252 4.316907 19.772287 -12.102578 0.000000 -0.000000 0.000000 -8.211260 3.182519 -41.281470 -3.778887 11.145575 24.805815 4.956885 -3.262809 -2.317717 0.000000 -0.000000 0.000000 4.435164 10.770018 34.469006 7.411196 -1.415426 9.570512 6.947488 -4.699774 -9.497077 -28.225645 -10.634045 -2.493774 1.481897 8.518478 -17.057586 -17.660027 -51.068329 10.226728 -16.754061 -54.590848 -11.343411 84.332693 -62.150905 -69.271754 10.960132 -6.576371 -30.651074 7.473279 39.774254 1.500020 19.572421 42.225041 -20.320896 -98.031026 47.635783 -88.976844 -13.330911 12.967975 -19.234421 
-0.062342 0.167725 0.980395 158.017276 -1.374731 105.980261 -4.129411 -2.926912 -32.046213 5.156006 8.965108 24.026542 4.241924 19.868062 -12.206167 0.000000 -0.000000 0.000000 -7.801505 3.405431 -41.105893 -3.783334 11.108558 25.004890 4.873473 -3.406909 -2.431420 0.000000 -0.000000 0.000000 4.484541 10.614588 35.044042 7.022248 -1.274697 9.514963 6.846684 -4.850604 -9.693860 -28.473297 -10.917318 -2.451989 1.384699 9.255371 -17.182563 -18.431146 -51.156809 10.702655 -16.890995 -54.536761 -11.002540 84.530824 -62.099586 -69.469568 11.362077 -6.262814 -30.004631 6.952615 39.665638 1.046822 18.882209 41.688155 -20.716214 -96.835083 48.307812 -89.100387 -11.703058 13.240168 -20.382438 
-0.058467 0.167162 0.980439 157.996646 -1.396498 106.042397 -3.998460 -2.894389 -32.118800 5.404789 8.834738 24.113665 4.048992 19.861157 -12.228911 0.000000 -0.000000 0.000000 -7.698219 3.563690 -41.098352 -3.608445 11.320296 25.027213 4.648867 -3.356598 -2.524369 0.000000 -0.000000 0.000000 4.428087 10.595169 35.058620 6.739055 -1.254429 9.449466 6.718001 -5.084050 -9.586827 -28.768706 -10.884972 -2.739914 1.267536 9.830039 -17.484226 -18.961061 -51.225483 11.003089 -17.004910 -54.552601 -10.875445 84.783530 -62.099833 -69.341436 11.058238 -6.118490 -29.291454 6.261616 39.284723 0.383614 18.525931 41.383576 -20.840615 -95.554819 49.005052 -88.586426 -9.940546 13.396754 -21.651254 
-0.054400 0.166597 0.980661 157.857011 -1.294243 106.004496 -3.679920 -2.742651 -32.013566 5.454523 8.668747 24.141141 3.834573 19.927137 -12.173876 0.000000 -0.000000 0.000000 -7.349100 3.681160 -41.145503 -3.486056 11.185945 25.169604 4.599461 -3.435839 -2.623601 0.000000 -0.000000 0.000000 4.388783 10.532018 35.301670 6.392343 -1.142192 9.375296 6.656908 -5.257805 -9.674121 -29.060107 -11.466508 -2.464589 1.327319 10.522138 -17.733939 -19.805255 -51.432602 11.528399 -17.104777 -54.297718 -10.478613 84.973714 -62.134283 -69.885009 11.924461 -5.726288 -28.653862 5.742160 39.368836 0.055569 17.783919 40.749725 -21.298096 -94.465194 49.660731 -88.410381 -8.335142 13.950824 -21.525925 
-0.050306 0.166010 0.980942 157.752600 -1.327188 106.001885 -3.561659 -2.752863 -31.858618 5.665810 8.530614 24.004808 3.603588 20.106508 -12.145276 0.000000 -0.000000 0.000000 -7.168980 3.726445 -41.048843 -3.312343 11.278222 25.092197 4.404688 -3.453083 -2.703823 0.000000 -0.000000 0.000000 4.382750 10.509141 35.400329 5.963598 -1.140304 9.454246 6.488602 -5.420633 -9.773862 -29.471677 -11.613977 -2.124574 1.240167 11.141354 -17.909032 -21.129691 -51.626662 12.503288 -16.611430 -54.057163 -10.520948 85.240900 -62.355923 -69.849640 13.050806 -5.696814 -27.514024 5.043625 39.287416 -0.287905 17.032078 40.145191 -21.735619 -92.926232 50.503805 -88.355194 -7.105815 14.446545 -23.770957 
-0.045702 0.165286 0.981429 157.612449 -1.255814 106.054307 -3.362233 -2.531062 -31.786871 5.740651 8.150747 23.866471 3.351311 20.371926 -12.042429 0.000000 -0.000000 0.000000 -6.731764 3.728611 -41.067196 -3.189093 11.449950 25.076084 4.284901 -3.383340 -2.696303 0.000000 -0.000000 0.000000 4.212828 10.627115 35.552414 5.544932 -1.043091 9.186809 6.525772 -5.597872 -9.620908 -30.011656 -11.602226 -2.212437 1.485107 12.017401 -18.109378 -22.113609 -51.969747 13.270723 -16.877917 -54.041211 -10.098458 85.593246 -62.318700 -70.050435 15.064548 -4.932065 -25.943815 4.266367 39.146159 -0.608164 15.955081 39.318634 -22.547741 -91.292397 51.828264 -88.303939 -6.343254 15.293857 -25.535266 
-0.040021 0.164491 0.981891 157.411586 -1.055350 105.949806 -2.857753 -1.975039 -31.500794 5.628636 8.033800 23.694938 3.192216 20.280735 -11.929348 0.000000 -0.000000 0.000000 -6.031246 3.908069 -40.927754 -3.182296 11.597010 25.087456 4.064176 -3.354133 -2.609312 0.000000 -0.000000 0.000000 3.857907 10.776981 35.908662 5.236713 -0.694685 8.991513 6.625239 -5.800385 -9.513589 -30.257713 -11.752721 -2.249107 1.318039 12.700774 -18.314685 -23.034098 -52.234819 13.917299 -17.360319 -54.088604 -9.633277 85.970123 -62.054678 -70.552950 16.644005 -4.546309 -25.083691 3.233569 38.962773 -1.433841 15.393222 38.426003 -22.728053 -90.389203 52.867618 -87.699332 -4.961494 15.812076 -24.857261 
